<svg id="email" xmlns="http://www.w3.org/2000/svg" xmlns:xlink="http://www.w3.org/1999/xlink" viewBox="0 0 42.684 35.039">
  <defs>
    <clipPath id="clip-path">
      <rect id="Rectangle_22" data-name="Rectangle 22" width="42.684" height="35.039" fill="#fff"/>
    </clipPath>
  </defs>
  <g transform="translate(0 0)">
    <g transform="translate(0 0)" clip-path="url(#clip-path)">
      <path id="Path_19" data-name="Path 19" d="M34.151,35.039H8.532A8.549,8.549,0,0,1,0,26.507V8.532A8.549,8.549,0,0,1,8.532,0H34.151a8.549,8.549,0,0,1,8.532,8.532V26.507a8.549,8.549,0,0,1-8.532,8.532M8.532,2.166A6.377,6.377,0,0,0,2.166,8.532V26.507a6.377,6.377,0,0,0,6.367,6.367H34.151a6.377,6.377,0,0,0,6.367-6.367V8.532a6.377,6.377,0,0,0-6.367-6.367Z" transform="translate(0 0)" fill="#fff"/>
      <path id="Path_20" data-name="Path 20" d="M17.369,13.9a5.883,5.883,0,0,1-3.378-1.061L3.791,5.8A1.09,1.09,0,1,1,5.026,4l10.2,7.038a3.774,3.774,0,0,0,4.4-.087L28.977,4a1.083,1.083,0,0,1,1.3,1.732l-9.355,6.952a5.917,5.917,0,0,1-3.552,1.169Z" transform="translate(3.875 4.421)" fill="#fff"/>
    </g>
  </g>
</svg>
