<?xml version="1.0" encoding="UTF-8"?>
<svg xmlns="http://www.w3.org/2000/svg" viewBox="0 0 147.45 286.32">
  <g>
    <path class="cls-1" d="M125.76,172.67l-20.06-60.31c.98-.62,1.96-1.26,2.91-1.94,13.24-9.43,22.01-23.46,24.7-39.49C138.87,37.85,116.47,6.4,83.38.85,50.28-4.71,18.84,17.69,13.28,50.79l6.73,1.13,7.36,1.24c4.25-25.32,28.31-42.46,53.64-38.21,25.32,4.25,42.47,28.31,38.22,53.64-2.01,11.98-8.47,22.49-18.22,29.7l-14.79-44.47c-1.86-5.72-7.19-9.59-13.2-9.59s-11.35,3.87-13.21,9.6l-39.45,118.86c-.49,1.58-.45,3.29.14,4.84l7.48,19.83L71.66,62.69c.32-1.51,2.48-1.51,2.8,0l13.73,42.32c-7.18,2.43-14.9,3.07-22.6,1.78l-2.37,14.09c3.41.57,6.82.85,10.21.85,6.55,0,13-1.07,19.16-3.13l25.54,78.74,7.48-19.83c.59-1.55.64-3.26.14-4.84Z"/>
    <path class="cls-1" d="M49.82,228.78h-.45l-.21,1.34c.89-.08,1.71-.13,2.45-.17.74-.04,1.38-.06,1.92-.06s1.76.07,3.73.2l.45.03.17-1.34h-.24c-.57,0-.97-.1-1.2-.31-.23-.21-.4-.68-.53-1.42l-1.72-9.38c-.09-.51-.18-1.07-.26-1.67-.09-.6-.16-1.23-.23-1.9h-3.99c-.24.63-.78,1.61-1.6,2.91-.17.28-.29.49-.38.63l-4.16,6.9c-.1.17-.24.41-.44.73-1.38,2.35-2.56,3.52-3.55,3.52-.11,0-.2,0-.26,0-.06,0-.11,0-.15-.02l-.24,1.34c.96-.1,1.66-.16,2.11-.19.45-.03.84-.04,1.16-.04.49,0,1.59.07,3.31.21l.1.02.21-1.34h-.16c-.49,0-.84-.06-1.04-.18-.2-.12-.3-.32-.3-.59,0-.18.04-.4.13-.65.08-.25.21-.54.39-.86l.73-1.39c.44,0,.97,0,1.58-.01.61,0,1.01-.01,1.18-.01s.57,0,1.22.02c.64.01,1.16.02,1.56.03l.28,1.71c.02.14.04.27.06.39.01.12.02.23.02.32,0,.45-.12.77-.36.95-.24.18-.67.27-1.29.27ZM49.77,223.3c-.48,0-.85.01-1.1.01-.5,0-.9,0-1.19,0-.29,0-.57,0-.85-.02l3.26-5.85.94,5.85c-.22,0-.57,0-1.06.01Z"/>
    <path class="cls-1" d="M69.87,221.9l-.24,1.2c-.09.47-.21,1.11-.37,1.92-.3,1.57-.5,2.5-.6,2.79-.13.36-.32.61-.56.77-.25.15-.58.23-1.01.23-.11,0-.3,0-.56-.02-.03,0-.05,0-.07,0l-.24,1.34c1.04-.08,1.91-.13,2.62-.17.71-.04,1.3-.06,1.77-.06.42,0,.98.02,1.67.06.69.04,1.51.1,2.46.19l.2-1.35c-.05,0-.11,0-.18.01-.07,0-.16,0-.29,0-.48,0-.83-.08-1.06-.23-.22-.15-.33-.39-.33-.73,0-.15.04-.48.1-.99.07-.5.16-1.07.27-1.69l.29-1.5h.41c.22,0,.58-.02,1.07-.05h.07c.27.58.64,1.49,1.12,2.74.48,1.25.9,2.1,1.28,2.56.39.48.93.85,1.62,1.09.69.24,1.55.36,2.58.36.3,0,.64-.01,1.01-.03.37-.02.79-.05,1.25-.09l.25-1.4c-.07,0-.14,0-.21,0-.07,0-.17,0-.31,0-1.11,0-2.15-1.03-3.13-3.08-.15-.3-.26-.54-.34-.7l-1.08-2.22c1.13-.44,2.01-1.05,2.63-1.84s.94-1.69.94-2.69c0-1.3-.47-2.3-1.42-3-.95-.7-2.31-1.04-4.07-1.04-.53,0-1.34.04-2.44.12-1.1.08-1.94.11-2.52.11-.4,0-.86-.01-1.38-.04-.52-.03-1.17-.07-1.94-.12l-.27,1.29h.23c.64,0,1.08.07,1.31.2.23.13.35.37.35.72,0,.21-.08.8-.24,1.75-.16.95-.37,2.15-.65,3.59ZM74.57,219.17c.24-1.25.42-2.19.53-2.82.07,0,.16,0,.27-.01.12,0,.2-.01.24-.01,1.01,0,1.75.18,2.22.54.47.36.7.93.7,1.71,0,1.08-.35,1.92-1.04,2.53-.69.6-1.65.91-2.89.91-.16,0-.28,0-.37,0-.09,0-.16-.01-.22-.02.12-.63.3-1.56.55-2.82Z"/>
    <path class="cls-1" d="M106.43,227.2c.13-.63.28-1.27.46-1.92l-1.39-.25c-.34,1.04-.85,1.83-1.54,2.35-.69.53-1.56.79-2.59.79-1.28,0-2.25-.39-2.91-1.19-.66-.79-.99-1.95-.99-3.46,0-2.25.47-4.03,1.4-5.35.93-1.32,2.2-1.98,3.79-1.98,1.1,0,1.96.22,2.58.66.62.44.93,1.05.93,1.84,0,.12-.02.37-.06.77-.02.18-.03.32-.03.43l1.45.16c.11-.83.24-1.66.41-2.49.16-.83.36-1.65.58-2.47-.97-.38-1.9-.67-2.79-.85-.89-.18-1.77-.27-2.63-.27-3.05,0-5.58.92-7.59,2.75-2.02,1.83-3.03,4.11-3.03,6.85,0,2.17.71,3.88,2.13,5.16,1.42,1.28,3.34,1.91,5.77,1.91.81,0,1.67-.12,2.57-.37.9-.24,1.96-.65,3.18-1.2.08-.6.19-1.22.32-1.85Z"/>
    <path class="cls-1" d="M4.35,256.38l-4.35,9.34h1.83l.93-2.1h3.33l.41,2.1h1.82l-2.06-9.34h-1.9ZM3.36,262.25l1.31-2.96c.13-.29.29-.69.4-1.04h.04c.03.35.08.75.14,1.03l.58,2.97h-2.46Z"/>
    <path class="cls-1" d="M17.93,262.06c-.17,1.39-1.05,2.2-2.17,2.2s-1.82-.81-1.65-2.22l.69-5.66h-1.78l-.7,5.68c-.28,2.28,1.03,3.75,3.25,3.75s3.87-1.48,4.15-3.75l.7-5.68h-1.78l-.7,5.68Z"/>
    <polygon class="cls-1" points="24.11 257.86 26.86 257.86 25.89 265.72 27.67 265.72 28.64 257.86 31.39 257.86 31.57 256.38 24.29 256.38 24.11 257.86"/>
    <path class="cls-1" d="M39.06,256.28c-2.8,0-4.95,2.12-4.95,5.41,0,2.53,1.5,4.12,3.78,4.12,2.83,0,4.96-2.12,4.96-5.41,0-2.53-1.49-4.11-3.79-4.11ZM38.08,264.26c-1.29,0-2.16-1.02-2.16-2.69,0-2.28,1.32-3.73,2.95-3.73,1.31,0,2.17,1.02,2.17,2.69,0,2.28-1.3,3.73-2.96,3.73Z"/>
    <path class="cls-1" d="M55.44,256.38l-2.93,5.33c-.29.53-.71,1.32-.79,1.54h-.04c-.04-.22-.24-1-.41-1.54l-1.64-5.34h-1.91l-1.14,9.34h1.76l.62-5.18c.05-.41.09-1.07.07-1.15l.08-.02c0,.07.05.49.16.87l1.62,5.52h.97l2.91-5.46c.13-.24.36-.81.41-.93l.04.02c-.02.08-.14.73-.19,1.15l-.65,5.18h1.77l1.15-9.34h-1.86Z"/>
    <path class="cls-1" d="M66.27,256.38h-1.9l-4.35,9.34h1.83l.93-2.1h3.33l.41,2.1h1.82l-2.06-9.34ZM63.37,262.25l1.31-2.96c.13-.29.29-.69.4-1.04h.04c.03.35.08.75.14,1.03l.58,2.97h-2.46Z"/>
    <polygon class="cls-1" points="71.5 257.86 74.24 257.86 73.28 265.72 75.06 265.72 76.03 257.86 78.78 257.86 78.96 256.38 71.68 256.38 71.5 257.86"/>
    <polygon class="cls-1" points="88.6 257.86 88.78 256.38 82.94 256.38 81.79 265.72 87.63 265.72 87.81 264.24 83.75 264.24 84.07 261.65 87.61 261.65 87.78 260.23 84.25 260.23 84.54 257.86 88.6 257.86"/>
    <path class="cls-1" d="M105,258.98c0-1.79-1.11-2.6-3.17-2.6h-2.96l-1.15,9.34h1.78l.41-3.32h.47c2.09,0,.91,3.41,3.6,3.41.58,0,.94-.09.94-.09l.05-1.37s-.13.03-.28.03c-1.16,0-.96-1.78-1.89-2.3,1.36-.49,2.2-1.53,2.2-3.1ZM101,261.11h-.94l.4-3.3h1.09c1.08,0,1.67.49,1.67,1.42,0,1.22-.95,1.88-2.22,1.88Z"/>
    <polygon class="cls-1" points="110.09 256.38 108.94 265.72 110.7 265.72 111.84 256.38 110.09 256.38"/>
    <path class="cls-1" d="M121.73,264.64c-.01.57,0,.96.02,1.08h1.18l.56-4.57h-3.95l-.14,1.21h2.46c-.14,1.13-.96,1.96-2.33,1.96s-2.15-1.09-2.15-2.73c0-2.34,1.34-3.75,2.82-3.75,1.4,0,1.81,1.07,1.7,1.95l1.68-.26c.16-1.35-.56-3.23-3.21-3.23s-4.8,2.18-4.8,5.48c0,2.45,1.32,4.05,3.47,4.05,1.16,0,2.07-.41,2.68-1.17Z"/>
    <polygon class="cls-1" points="133.94 260.2 129.87 260.2 130.34 256.38 128.55 256.38 127.41 265.72 129.19 265.72 129.69 261.67 133.76 261.67 133.26 265.72 135.04 265.72 136.19 256.38 134.41 256.38 133.94 260.2"/>
    <polygon class="cls-1" points="140.16 256.38 139.98 257.86 142.73 257.86 141.76 265.72 143.54 265.72 144.51 257.86 147.27 257.86 147.45 256.38 140.16 256.38"/>
    <path class="cls-1" d="M25.94,276.79c-2.69,0-4.81,2.18-4.81,5.44,0,2.54,1.49,4.08,3.87,4.08,1.99,0,3.22-1.28,3.65-1.8l-.92-1.1c-.46.58-1.34,1.35-2.49,1.35-1.24,0-2.3-.79-2.3-2.68,0-2.33,1.34-3.75,2.83-3.75,1.4,0,1.77,1.21,1.66,2.09l1.68-.26c.18-1.41-.52-3.38-3.17-3.38Z"/>
    <path class="cls-1" d="M37.66,276.79c-2.8,0-4.95,2.12-4.95,5.41,0,2.53,1.5,4.12,3.78,4.12,2.83,0,4.96-2.12,4.96-5.41,0-2.53-1.49-4.11-3.79-4.11ZM36.67,284.76c-1.29,0-2.16-1.02-2.16-2.69,0-2.28,1.32-3.73,2.95-3.73,1.31,0,2.17,1.02,2.17,2.69,0,2.28-1.3,3.73-2.96,3.73Z"/>
    <path class="cls-1" d="M51.46,281.96c-.1.78-.13,1.49-.13,1.72l-.09.04c-.11-.27-.39-.96-.78-1.75l-2.49-5.09h-1.65l-1.15,9.34h1.74l.59-4.94c.09-.75.15-1.49.12-1.68l.1-.04c.14.31.51,1.16.8,1.73l2.4,4.93h1.74l1.14-9.34h-1.75l-.61,5.08Z"/>
    <path class="cls-1" d="M61.34,278.28c1.12,0,1.49.8,1.47,1.3h0l1.66-.4c-.07-.9-.58-2.4-2.97-2.4-2.04,0-3.51,1.31-3.51,3.03,0,2.82,4.22,2,4.22,3.82,0,.74-.58,1.2-1.69,1.2-1.21,0-2.04-.7-2.38-1.07l-1.23,1.31c.46.46,1.58,1.24,3.39,1.24,2.38,0,3.71-1.24,3.71-2.92,0-3.01-4.21-2.27-4.21-3.86,0-.75.62-1.25,1.55-1.25Z"/>
    <path class="cls-1" d="M73.98,282.56c-.17,1.39-1.05,2.2-2.17,2.2s-1.82-.81-1.65-2.22l.69-5.66h-1.78l-.7,5.68c-.28,2.28,1.03,3.75,3.25,3.75s3.87-1.48,4.15-3.75l.7-5.68h-1.78l-.7,5.68Z"/>
    <polygon class="cls-1" points="82.94 276.88 81.16 276.88 80.02 286.22 85.92 286.22 86.1 284.74 81.98 284.74 82.94 276.88"/>
    <polygon class="cls-1" points="88.7 278.36 91.45 278.36 90.48 286.22 92.26 286.22 93.23 278.36 95.98 278.36 96.16 276.88 88.88 276.88 88.7 278.36"/>
    <polygon class="cls-1" points="98.99 286.22 100.75 286.22 101.9 276.88 100.14 276.88 98.99 286.22"/>
    <path class="cls-1" d="M111.82,281.96c-.1.78-.13,1.49-.13,1.72l-.09.04c-.11-.27-.39-.96-.78-1.75l-2.49-5.09h-1.65l-1.14,9.34h1.74l.59-4.94c.09-.75.15-1.49.12-1.68l.1-.04c.14.31.51,1.16.8,1.73l2.41,4.93h1.74l1.15-9.34h-1.75l-.61,5.08Z"/>
    <path class="cls-1" d="M122.71,276.79c-2.68,0-4.8,2.18-4.8,5.48,0,2.45,1.32,4.05,3.47,4.05,1.16,0,2.07-.41,2.68-1.17-.01.57,0,.96.02,1.08h1.18l.56-4.57h-3.95l-.14,1.21h2.46c-.14,1.13-.96,1.96-2.33,1.96s-2.15-1.09-2.15-2.73c0-2.34,1.34-3.75,2.82-3.75,1.4,0,1.81,1.07,1.7,1.95l1.68-.26c.16-1.35-.56-3.23-3.21-3.23Z"/>
  </g>
</svg>