<svg id="phone" xmlns="http://www.w3.org/2000/svg" xmlns:xlink="http://www.w3.org/1999/xlink" viewBox="0 0 31.47 46.066">
  <defs>
    <clipPath id="clip-path">
      <rect id="Rectangle_21" data-name="Rectangle 21" width="31.47" height="46.066" fill="#fff"/>
    </clipPath>
  </defs>
  <g transform="translate(0 0)">
    <g transform="translate(0 0)" clip-path="url(#clip-path)">
      <path id="Path_15" data-name="Path 15" d="M25.571,2.744A3.156,3.156,0,0,1,28.726,5.9V40.167a3.156,3.156,0,0,1-3.155,3.155H5.9a3.156,3.156,0,0,1-3.155-3.155V5.9A3.156,3.156,0,0,1,5.9,2.744Zm0-2.744H5.9A5.89,5.89,0,0,0,0,5.9V40.167a5.907,5.907,0,0,0,5.9,5.9H25.571a5.907,5.907,0,0,0,5.9-5.9V5.9a5.907,5.907,0,0,0-5.9-5.9" transform="translate(0 0)" fill="#fff"/>
      <path id="Path_16" data-name="Path 16" d="M7.561,12.02A2.881,2.881,0,1,1,4.68,14.9,2.881,2.881,0,0,1,7.561,12.02" transform="translate(8.16 20.959)" fill="#fff"/>
      <path id="Path_17" data-name="Path 17" d="M3.062,8.62a1.287,1.287,0,0,1-.96-.412,1.358,1.358,0,0,1,0-1.948L5.97,2.392A1.377,1.377,0,0,1,7.918,4.34L4.05,8.208a1.378,1.378,0,0,1-.96.412Z" transform="translate(2.947 3.452)" fill="#fff"/>
      <path id="Path_18" data-name="Path 18" d="M3.062,15.721a1.287,1.287,0,0,1-.96-.412,1.358,1.358,0,0,1,0-1.948l11.03-11.03A1.377,1.377,0,1,1,15.079,4.28L4.022,15.309a1.378,1.378,0,0,1-.96.412" transform="translate(2.947 3.348)" fill="#fff"/>
    </g>
  </g>
</svg>
